<?xml version="1.0" standalone="no"?>
<!DOCTYPE svg PUBLIC "-//W3C//DTD SVG 20010904//EN"
 "http://www.w3.org/TR/2001/REC-SVG-20010904/DTD/svg10.dtd">
<svg version="1.0" xmlns="http://www.w3.org/2000/svg"
 width="512.000000pt" height="512.000000pt" viewBox="0 0 512.000000 512.000000"
 preserveAspectRatio="xMidYMid meet">
<metadata>
Created by potrace 1.15, written by Peter Selinger 2001-2017
</metadata>
<g transform="translate(0.000000,512.000000) scale(0.100000,-0.100000)"
fill="#000000" stroke="none">
<path d="M2345 4910 c-141 -15 -269 -38 -412 -75 -144 -38 -324 -101 -335
-119 -4 -6 -8 -7 -8 -3 0 5 -7 1 -16 -7 -8 -9 -21 -16 -27 -16 -24 0 -251
-132 -374 -217 -345 -240 -616 -546 -798 -903 -137 -271 -214 -514 -256 -820
-20 -141 -17 -496 5 -645 115 -784 571 -1443 1263 -1824 197 -108 454 -201
701 -253 100 -21 131 -23 472 -23 341 0 372 2 472 23 346 73 662 207 934 398
807 565 1197 1539 1004 2505 -120 597 -456 1125 -952 1494 -21 15 -38 25 -38
23 0 -3 28 -27 63 -53 84 -66 238 -222 318 -325 199 -255 337 -519 439 -840
19 -58 40 -111 47 -118 7 -7 13 -35 13 -61 0 -26 8 -94 17 -152 12 -76 17
-171 17 -354 1 -282 -13 -391 -80 -620 -19 -66 -36 -131 -38 -145 -4 -24 -81
-212 -113 -275 -9 -16 -22 -37 -30 -45 -7 -8 -37 -54 -65 -103 -240 -409 -679
-780 -1133 -960 -49 -20 -101 -38 -115 -40 -14 -3 -63 -16 -110 -30 -405 -122
-892 -117 -1335 13 -247 72 -565 243 -795 427 -189 151 -413 405 -553 626
-162 257 -262 554 -302 893 -16 139 -20 401 -6 423 9 14 21 16 459 101 l272
53 0 424 0 423 178 -2 177 -3 3 -299 2 -298 33 6 c88 18 241 36 314 36 l82 0
5 33 c4 27 21 353 43 840 3 70 10 130 16 134 10 6 155 22 762 83 225 22 413
44 417 48 4 4 3 23 -2 42 -5 19 -11 46 -14 60 -3 14 -26 106 -52 205 -25 99
-49 195 -51 213 -3 18 -9 35 -14 38 -5 3 -9 16 -9 28 0 16 -7 26 -22 30 -40
11 -380 15 -473 6z"/>
</g>
</svg>
